<svg width="3246" height="714" viewBox="0 0 3246 714" fill="none" xmlns="http://www.w3.org/2000/svg">
<path d="M3027.3 575.779C2989.37 575.779 2955.14 567.403 2924.6 550.649C2894.55 533.403 2870.91 509.751 2853.67 479.693C2836.43 449.635 2827.81 414.157 2827.81 373.259C2827.81 332.361 2836.43 296.882 2853.67 266.825C2870.91 236.767 2894.55 213.361 2924.6 196.608C2955.14 179.854 2989.37 171.477 3027.3 171.477C3060.3 171.477 3089.86 178.869 3115.96 193.651C3142.07 207.941 3162.76 229.868 3178.03 259.433C3193.3 288.998 3200.93 326.94 3200.93 373.259C3200.93 419.085 3193.54 457.027 3178.76 487.084C3163.99 516.649 3143.55 538.823 3117.44 553.606C3091.33 568.388 3061.29 575.779 3027.3 575.779ZM3038.38 496.693C3060.55 496.693 3080.25 491.765 3097.49 481.91C3115.22 472.055 3129.26 457.766 3139.61 439.041C3150.44 420.317 3155.86 398.389 3155.86 373.259C3155.86 347.636 3150.44 325.708 3139.61 307.477C3129.26 288.752 3115.22 274.462 3097.49 264.607C3080.25 254.752 3060.55 249.825 3038.38 249.825C3016.22 249.825 2996.27 254.752 2978.54 264.607C2961.3 274.462 2947.26 288.752 2936.42 307.477C2926.08 325.708 2920.91 347.636 2920.91 373.259C2920.91 398.389 2926.08 420.317 2936.42 439.041C2947.26 457.766 2961.3 472.055 2978.54 481.91C2996.27 491.765 3016.22 496.693 3038.38 496.693ZM3158.08 570.606V477.476L3161.77 372.52L3154.38 267.564V22.1738H3246V570.606H3158.08Z" fill="#373D4A"/>
<path d="M2691.08 570.606V175.912H2783.44V570.606H2691.08ZM2737.63 110.869C2720.39 110.869 2706.1 105.449 2694.78 94.6082C2683.94 83.7677 2678.52 70.7098 2678.52 55.4345C2678.52 39.6664 2683.94 26.6085 2694.78 16.2608C2706.1 5.42026 2720.39 0 2737.63 0C2754.87 0 2768.91 5.17389 2779.74 15.5216C2791.07 25.3767 2796.74 37.9418 2796.74 53.2171C2796.74 69.4779 2791.32 83.2749 2780.48 94.6082C2769.65 105.449 2755.36 110.869 2737.63 110.869Z" fill="#373D4A"/>
<path d="M2529.7 570.609V490.784L2524.53 473.784V334.089C2524.53 306.988 2516.4 286.046 2500.14 271.263C2483.89 255.988 2459.26 248.35 2426.26 248.35C2404.09 248.35 2382.18 251.8 2360.5 258.698C2339.32 265.597 2321.34 275.205 2306.57 287.524L2270.36 220.263C2291.54 204.003 2316.66 191.93 2345.73 184.046C2375.28 175.67 2405.82 171.481 2437.34 171.481C2494.48 171.481 2538.56 185.278 2569.6 212.872C2601.12 239.974 2616.88 282.104 2616.88 339.263V570.609H2529.7ZM2405.57 575.783C2376.02 575.783 2350.16 570.856 2327.99 561.001C2305.83 550.653 2288.59 536.61 2276.27 518.871C2264.45 500.639 2258.54 480.19 2258.54 457.523C2258.54 435.349 2263.71 415.393 2274.06 397.654C2284.89 379.915 2302.38 365.871 2326.52 355.524C2350.65 345.176 2382.67 340.002 2422.57 340.002H2537.09V401.349H2429.22C2397.69 401.349 2376.51 406.523 2365.67 416.871C2354.84 426.726 2349.42 439.045 2349.42 453.827C2349.42 470.581 2356.07 483.885 2369.37 493.74C2382.67 503.595 2401.14 508.523 2424.78 508.523C2447.44 508.523 2467.64 503.349 2485.37 493.001C2503.59 482.653 2516.65 467.378 2524.53 447.175L2540.04 502.61C2531.18 525.769 2515.17 543.754 2492.02 556.566C2469.36 569.378 2440.54 575.783 2405.57 575.783Z" fill="#373D4A"/>
<path d="M2048.19 575.783C2016.17 575.783 1986.86 568.392 1960.26 553.61C1934.16 538.827 1913.22 516.653 1897.46 487.088C1882.19 457.03 1874.56 419.089 1874.56 373.263C1874.56 326.944 1881.95 289.002 1896.72 259.437C1911.99 229.872 1932.68 207.945 1958.79 193.655C1984.89 178.872 2014.69 171.481 2048.19 171.481C2087.1 171.481 2121.33 179.858 2150.89 196.611C2180.93 213.365 2204.58 236.771 2221.82 266.828C2239.55 296.886 2248.42 332.364 2248.42 373.263C2248.42 414.161 2239.55 449.885 2221.82 480.436C2204.58 510.494 2180.93 533.899 2150.89 550.653C2121.33 567.407 2087.1 575.783 2048.19 575.783ZM1829.49 714V175.916H1917.41V269.046L1914.46 374.002L1921.84 478.958V714H1829.49ZM2037.84 496.697C2060.01 496.697 2079.71 491.769 2096.95 481.914C2114.68 472.059 2128.72 457.769 2139.07 439.045C2149.41 420.32 2154.58 398.393 2154.58 373.263C2154.58 347.64 2149.41 325.712 2139.07 307.48C2128.72 288.756 2114.68 274.466 2096.95 264.611C2079.71 254.756 2060.01 249.829 2037.84 249.829C2015.68 249.829 1995.73 254.756 1978 264.611C1960.26 274.466 1946.23 288.756 1935.88 307.48C1925.54 325.712 1920.37 347.64 1920.37 373.263C1920.37 398.393 1925.54 420.32 1935.88 439.045C1946.23 457.769 1960.26 472.059 1978 481.914C1995.73 491.769 2015.68 496.697 2037.84 496.697Z" fill="#373D4A"/>
<path d="M1660.25 570.606V22.1738H1752.6V570.606H1660.25Z" fill="#373D4A"/>
<path d="M1491 570.606V22.1738H1583.36V570.606H1491Z" fill="#373D4A"/>
<path d="M1329.62 570.609V490.784L1324.44 473.784V334.089C1324.44 306.988 1316.32 286.046 1300.06 271.263C1283.81 255.988 1259.18 248.35 1226.18 248.35C1204.01 248.35 1182.09 251.8 1160.42 258.698C1139.24 265.597 1121.26 275.205 1106.48 287.524L1070.28 220.263C1091.46 204.003 1116.58 191.93 1145.64 184.046C1175.2 175.67 1205.74 171.481 1237.26 171.481C1294.4 171.481 1338.48 185.278 1369.51 212.872C1401.04 239.974 1416.8 282.104 1416.8 339.263V570.609H1329.62ZM1205.49 575.783C1175.94 575.783 1150.08 570.856 1127.91 561.001C1105.74 550.653 1088.5 536.61 1076.19 518.871C1064.37 500.639 1058.46 480.19 1058.46 457.523C1058.46 435.349 1063.63 415.393 1073.97 397.654C1084.81 379.915 1102.3 365.871 1126.43 355.524C1150.57 345.176 1182.59 340.002 1222.48 340.002H1337V401.349H1229.13C1197.61 401.349 1176.43 406.523 1165.59 416.871C1154.76 426.726 1149.34 439.045 1149.34 453.827C1149.34 470.581 1155.99 483.885 1169.29 493.74C1182.59 503.595 1201.06 508.523 1224.7 508.523C1247.36 508.523 1267.55 503.349 1285.29 493.001C1303.51 482.653 1316.56 467.378 1324.44 447.175L1339.96 502.61C1331.09 525.769 1315.09 543.754 1291.93 556.566C1269.28 569.378 1240.46 575.783 1205.49 575.783Z" fill="#373D4A"/>
<path d="M21.6404 317.917C-7.21347 289.052 -7.21346 242.253 21.6404 213.388L129.535 105.454C158.388 76.5891 205.17 76.5891 234.024 105.454L478.803 350.325C537.451 408.995 537.451 504.118 478.803 562.788C420.155 621.458 325.068 621.458 266.42 562.788L21.6404 317.917Z" fill="#00AEFF"/>
<path d="M516.033 43.8912C544.887 15.0265 591.669 15.0265 620.522 43.8912L759.573 182.994C788.427 211.859 788.427 258.658 759.573 287.523L494.406 552.789C427.154 620.066 318.118 620.066 250.866 552.789C183.614 485.512 183.614 376.435 250.866 309.158L516.033 43.8912Z" fill="#0077FF"/>
<path d="M548.035 182.127L653.54 76.5824L719.469 142.537L613.964 248.081C601.801 260.249 582.05 260.249 569.886 248.081L548.043 226.229C535.88 214.061 535.872 194.295 548.035 182.127Z" fill="#00AEFF"/>
<path d="M608.967 225.342C619.862 214.443 619.862 196.773 608.967 185.874C598.073 174.975 580.409 174.975 569.514 185.874C558.619 196.773 558.619 214.443 569.514 225.342C580.409 236.241 598.073 236.241 608.967 225.342Z" fill="white"/>
</svg>
