<svg width="3460" height="766" viewBox="0 0 3460 766" fill="none" xmlns="http://www.w3.org/2000/svg">
<path d="M3363.92 13.4829H3460V617.688H3363.92V560.806C3352.68 579.907 3334.42 595.637 3309.13 607.997C3284.13 620.075 3257.58 626.114 3229.48 626.114C3172.73 626.114 3124.69 604.907 3085.36 562.492C3046.31 520.077 3026.78 467.971 3026.78 406.174C3026.78 344.939 3046.31 293.114 3085.36 250.699C3124.69 208.283 3172.73 187.076 3229.48 187.076C3257.3 187.076 3283.85 193.256 3309.13 205.615C3334.42 217.974 3352.68 233.704 3363.92 252.805V13.4829ZM3249.29 534.683C3272.89 534.683 3295.23 528.784 3316.3 516.987C3337.65 505.189 3353.52 490.161 3363.92 471.903V342.551C3353.52 323.731 3337.79 308.422 3316.72 296.625C3295.65 284.546 3273.17 278.507 3249.29 278.507C3213.05 278.507 3182.71 290.726 3158.27 315.164C3133.82 339.321 3121.6 369.658 3121.6 406.174C3121.6 442.69 3133.82 473.308 3158.27 498.026C3182.71 522.464 3213.05 534.683 3249.29 534.683Z" fill="#1C1E24"/>
<path d="M2882 18.1177C2894.08 6.03924 2908.55 0 2925.41 0C2942.26 0 2956.73 6.03924 2968.81 18.1177C2981.17 30.1962 2987.36 44.5218 2987.36 61.0946C2987.36 78.2292 2981.17 92.8357 2968.81 104.914C2956.73 116.993 2942.26 123.032 2925.41 123.032C2908.55 123.032 2894.08 116.993 2882 104.914C2869.92 92.8357 2863.88 78.2292 2863.88 61.0946C2863.88 44.5218 2869.92 30.1962 2882 18.1177ZM2876.94 195.924H2972.61V617.688H2876.94V195.924Z" fill="#1C1E24"/>
<path d="M2705.19 195.924H2801.27V617.688H2705.19V560.806C2693.95 579.907 2675.69 595.637 2650.41 607.997C2625.4 620.075 2598.85 626.114 2570.76 626.114C2514.01 626.114 2465.97 604.907 2426.64 562.492C2387.58 520.077 2368.06 467.971 2368.06 406.174C2368.06 344.939 2387.58 293.114 2426.64 250.699C2465.97 208.283 2514.01 187.076 2570.76 187.076C2598.57 187.076 2625.12 193.256 2650.41 205.615C2675.69 217.974 2693.95 233.704 2705.19 252.805V195.924ZM2590.57 534.683C2614.17 534.683 2636.5 528.784 2657.57 516.987C2678.92 505.189 2694.8 490.161 2705.19 471.903V342.551C2694.8 323.731 2679.06 308.422 2657.99 296.625C2636.92 284.546 2614.45 278.507 2590.57 278.507C2554.32 278.507 2523.98 290.726 2499.54 315.164C2475.1 339.321 2462.88 369.658 2462.88 406.174C2462.88 442.69 2475.1 473.308 2499.54 498.026C2523.98 522.464 2554.32 534.683 2590.57 534.683Z" fill="#1C1E24"/>
<path d="M2140.26 187.076C2197.01 187.076 2244.91 208.283 2283.96 250.699C2323.29 293.114 2342.96 345.22 2342.96 407.017C2342.96 468.252 2323.29 520.077 2283.96 562.492C2244.91 604.907 2197.01 626.114 2140.26 626.114C2112.16 626.114 2085.47 620.075 2060.19 607.997C2034.9 595.637 2016.64 579.907 2005.4 560.806V766H1909.74V195.924H2005.4V251.963C2016.64 233.424 2034.9 217.974 2060.19 205.615C2085.75 193.256 2112.44 187.076 2140.26 187.076ZM2120.45 534.683C2156.69 534.683 2187.03 522.605 2211.48 498.448C2235.92 474.01 2248.14 443.533 2248.14 407.017C2248.14 369.938 2235.92 339.321 2211.48 315.164C2187.03 290.726 2156.69 278.507 2120.45 278.507C2096.85 278.507 2074.38 284.546 2053.02 296.625C2031.67 308.422 2015.8 323.45 2005.4 341.708V471.061C2015.8 489.88 2031.53 505.189 2052.6 516.987C2073.95 528.784 2096.57 534.683 2120.45 534.683Z" fill="#1C1E24"/>
<path d="M1834.07 13.4829V617.688H1738.41V13.4829H1834.07Z" fill="#1C1E24"/>
<path d="M1662.74 13.4829V617.688H1567.08V13.4829H1662.74Z" fill="#1C1E24"/>
<path d="M1395.33 195.924H1491.41V617.688H1395.33V560.806C1384.09 579.907 1365.83 595.637 1340.54 607.997C1315.54 620.075 1288.99 626.114 1260.89 626.114C1204.14 626.114 1156.1 604.907 1116.77 562.492C1077.72 520.077 1058.19 467.971 1058.19 406.174C1058.19 344.939 1077.72 293.114 1116.77 250.699C1156.1 208.283 1204.14 187.076 1260.89 187.076C1288.71 187.076 1315.26 193.256 1340.54 205.615C1365.83 217.974 1384.09 233.704 1395.33 252.805V195.924ZM1280.7 534.683C1304.3 534.683 1326.64 528.784 1347.71 516.987C1369.06 505.189 1384.93 490.161 1395.33 471.903V342.551C1384.93 323.731 1369.2 308.422 1348.13 296.625C1327.06 284.546 1304.58 278.507 1280.7 278.507C1244.46 278.507 1214.12 290.726 1189.68 315.164C1165.23 339.321 1153.01 369.658 1153.01 406.174C1153.01 442.69 1165.23 473.308 1189.68 498.026C1214.12 522.464 1244.46 534.683 1280.7 534.683Z" fill="#1C1E24"/>
<path d="M25.2785 345.687C-8.42617 311.988 -8.42616 257.352 25.2785 223.653L151.311 97.6427C185.016 63.944 239.662 63.944 273.367 97.6427L559.298 383.523C627.805 452.018 627.805 563.071 559.298 631.567C490.79 700.062 379.717 700.062 311.209 631.567L25.2785 345.687Z" fill="#00AEFF"/>
<path d="M602.786 25.7702C636.491 -7.92848 691.137 -7.9285 724.842 25.7702L887.269 188.169C920.974 221.868 920.974 276.504 887.269 310.203L577.524 619.894C498.966 698.437 371.598 698.438 293.041 619.894C214.483 541.35 214.483 414.005 293.041 335.461L602.786 25.7702Z" fill="#0077FF"/>
<path d="M640.168 187.152L763.41 63.9323L840.423 140.932L717.181 264.152C702.973 278.358 679.901 278.358 665.693 264.152L640.178 238.641C625.969 224.435 625.96 201.358 640.168 187.152Z" fill="#00AEFF"/>
<path d="M711.344 237.605C724.071 224.881 724.071 204.251 711.344 191.527C698.618 178.803 677.985 178.803 665.258 191.527C652.532 204.251 652.532 224.881 665.258 237.605C677.985 250.329 698.618 250.329 711.344 237.605Z" fill="white"/>
</svg>
